# File created by Blade
# Date/Time:  Thu Sep 25 18:58:07 2014
# Frame Rate: 120.000 fps
#------------------------------------------------------
:FULLY-SPECIFIED
:DEGREES
1367
root 1.278983 32.955812 1.808187 8.720329 -1.771168 -1.010157
Spine -9.525883 5.693388 -2.654159
Head -4.601682 -8.492669 15.186038
LeftShoulder -16.753977 14.532143 28.604506
LeftArm 17.096540 -22.216914 -26.554100
LeftForeArm 18.361876 -0.000000 14.388590
LeftHand -26.644923 0.000000 -4.824922
LeftHandThumb1 -26.253704 0.000000 33.147579
RightShoulder -23.716196 15.975693 -41.674944
RightArm -2.245479 2.720840 27.175318
RightForeArm -34.537701 -0.000000 15.554103
RightHand -13.655245 -0.000000 17.820112
RightHandThumb1 -24.326973 -0.000000 -32.862282
LeftUpLeg -1.036947 11.058668 4.790395
LeftLeg -4.032746 -0.000000 0.000000
LeftFoot -5.727971 -1.303965 -18.087504
LeftToeBase 8.351957 -0.000000 -0.000000
RightUpLeg -2.508442 -9.717863 -5.147568
RightLeg -1.255088 -0.000000 0.000000
RightFoot -2.839302 0.290730 3.387534
RightToeBase -3.488502 -0.000000 0.000000
1368
root 1.279118 32.950395 1.796430 8.860508 -1.712645 -1.012168
Spine -9.501693 5.686383 -2.656396
Head -5.025686 -8.557187 15.237562
LeftShoulder -16.901860 15.281062 27.745360
LeftArm 17.283189 -21.424659 -27.471271
LeftForeArm 18.336585 -0.000000 14.266518
LeftHand -26.628578 -0.000000 -4.870975
LeftHandThumb1 -26.253704 0.000000 33.147579
RightShoulder -23.783855 15.251036 -41.024074
RightArm -2.643446 2.063298 28.071438
RightForeArm -35.291616 0.000000 15.664516
RightHand -13.698573 -0.000000 18.373704
RightHandThumb1 -24.326973 -0.000000 -32.862282
LeftUpLeg -1.194811 10.987982 4.772912
LeftLeg -4.061937 -0.000000 0.000000
LeftFoot -5.753360 -1.299084 -18.125924
LeftToeBase 8.371766 -0.000000 -0.000000
RightUpLeg -2.641247 -9.770217 -5.112518
RightLeg -1.297240 -0.000000 0.000000
RightFoot -2.867772 0.324222 3.432197
RightToeBase -3.450834 -0.000000 0.000000
1369
root 1.280777 32.945266 1.785416 9.033718 -1.648716 -1.002760
Spine -9.545049 5.683318 -2.684992
Head -5.416769 -8.640429 15.301475
LeftShoulder -17.044785 16.040244 26.917890
LeftArm 17.482624 -20.397443 -28.321813
LeftForeArm 18.027535 -0.000000 14.167974
LeftHand -26.773520 -0.000000 -4.793273
LeftHandThumb1 -26.253704 0.000000 33.147579
RightShoulder -23.838335 14.717238 -40.418516
RightArm -3.037809 0.653354 28.907036
RightForeArm -35.588210 -0.000000 15.473865
RightHand -13.509086 0.000000 18.303419
RightHandThumb1 -24.326973 -0.000000 -32.862282
LeftUpLeg -1.391654 10.921048 4.732958
LeftLeg -4.077222 -0.000000 0.000000
LeftFoot -5.730489 -1.303346 -17.934011
LeftToeBase 8.072215 -0.000000 -0.000000
RightUpLeg -2.799634 -9.811877 -5.091046
RightLeg -1.342287 -0.000000 0.000000
RightFoot -2.888579 0.308140 3.451029
RightToeBase -3.445101 -0.000000 0.000000
1370
root 1.285150 32.941192 1.773077 9.168743 -1.582588 -0.993861
Spine -9.524460 5.623616 -2.706075
Head -5.812653 -8.640913 15.437941
LeftShoulder -17.225059 16.743935 26.114219
LeftArm 17.612520 -19.502386 -29.272774
LeftForeArm 18.112602 -0.000000 14.263834
LeftHand -27.036073 -0.000000 -4.935817
LeftHandThumb1 -26.253704 0.000000 33.147579
RightShoulder -23.731778 14.195121 -39.684474
RightArm -3.621732 -0.698637 29.670775
RightForeArm -36.029632 -0.000000 15.544818
RightHand -13.378814 -0.000000 18.389565
RightHandThumb1 -24.326973 -0.000000 -32.862282
LeftUpLeg -1.561228 10.848891 4.691762
LeftLeg -4.076498 -0.000000 0.000000
LeftFoot -5.826778 -1.248535 -18.132977
LeftToeBase 8.439687 -0.000000 -0.000000
RightUpLeg -2.927783 -9.842712 -5.079907
RightLeg -1.374240 -0.000000 0.000000
RightFoot -2.898815 0.288968 3.480010
RightToeBase -3.476066 -0.000000 0.000000
1371
root 1.286426 32.937576 1.764172 9.289207 -1.529142 -0.990159
Spine -9.512382 5.639351 -2.733488
Head -6.166009 -8.709945 15.532346
LeftShoulder -17.208916 17.235053 25.452319
LeftArm 17.491439 -18.377134 -30.200996
LeftForeArm 18.310369 -0.000000 14.404283
LeftHand -27.038293 -0.000000 -4.977576
LeftHandThumb1 -26.253704 0.000000 33.147579
RightShoulder -23.675140 13.628741 -38.981087
RightArm -4.111704 -2.267137 30.464330
RightForeArm -36.321806 -0.000000 15.463481
RightHand -13.300763 -0.000000 18.570339
RightHandThumb1 -24.326973 -0.000000 -32.862282
LeftUpLeg -1.697695 10.822499 4.668658
LeftLeg -4.097842 -0.000000 0.000000
LeftFoot -5.828853 -1.275166 -18.165479
LeftToeBase 8.409353 -0.000000 -0.000000
RightUpLeg -3.036412 -9.875228 -5.059911
RightLeg -1.407713 -0.000000 0.000000
RightFoot -2.922843 0.261006 3.499887
RightToeBase -3.420326 -0.000000 0.000000
1372
root 1.287068 32.935983 1.752760 9.381431 -1.444999 -0.979905
Spine -9.451092 5.579109 -2.751946
Head -6.500801 -8.737103 15.624030
LeftShoulder -17.250214 17.725737 24.795411
LeftArm 17.411142 -17.156583 -31.169567
LeftForeArm 18.413967 0.000000 14.558027
LeftHand -27.192700 -0.000000 -4.856761
LeftHandThumb1 -26.253704 0.000000 33.147579
RightShoulder -23.547164 13.138853 -38.267254
RightArm -4.627762 -3.863746 31.281817
RightForeArm -36.492735 -0.000000 15.318318
RightHand -13.231011 -0.000000 18.564716
RightHandThumb1 -24.326973 -0.000000 -32.862282
LeftUpLeg -1.822684 10.771020 4.653675
LeftLeg -4.116961 -0.000000 0.000000
LeftFoot -5.790071 -1.314190 -18.101014
LeftToeBase 8.377433 -0.000000 -0.000000
RightUpLeg -3.116431 -9.904854 -5.049959
RightLeg -1.432224 -0.000000 0.000000
RightFoot -2.913186 0.162963 3.485062
RightToeBase -3.435210 -0.000000 0.000000
1373
root 1.287588 32.936003 1.740301 9.480996 -1.358639 -0.969232
Spine -9.409903 5.569124 -2.781732
Head -6.792531 -8.800654 15.727893
LeftShoulder -17.145555 18.204239 24.161569
LeftArm 17.189932 -15.705380 -31.966663
LeftForeArm 18.120438 -0.000000 14.703200
LeftHand -27.199485 -0.000000 -4.929037
LeftHandThumb1 -26.253704 0.000000 33.147579
RightShoulder -23.428130 12.598386 -37.526099
RightArm -5.137714 -5.644095 32.113163
RightForeArm -36.195716 -0.000000 15.068567
RightHand -13.091731 -0.000000 18.334289
RightHandThumb1 -24.326973 -0.000000 -32.862282
LeftUpLeg -1.969300 10.700428 4.630818
LeftLeg -4.101982 -0.000000 0.000000
LeftFoot -5.780963 -1.325509 -18.082416
LeftToeBase 8.405936 -0.000000 -0.000000
RightUpLeg -3.210977 -9.930239 -5.031819
RightLeg -1.461002 -0.000000 0.000000
RightFoot -2.925429 0.144372 3.526896
RightToeBase -3.356234 -0.000000 0.000000
1374
root 1.288013 32.934127 1.733118 9.539173 -1.277054 -0.970371
Spine -9.306409 5.534217 -2.769379
Head -7.119645 -8.792043 15.807934
LeftShoulder -17.066391 18.644067 23.531276
LeftArm 17.001959 -14.573000 -32.932767
LeftForeArm 17.986688 -0.000000 14.757200
LeftHand -26.948673 0.000000 -5.247856
LeftHandThumb1 -26.253704 0.000000 33.147579
RightShoulder -23.403407 12.127593 -36.911163
RightArm -5.537308 -7.551905 33.045464
RightForeArm -35.819553 0.000000 14.717042
RightHand -12.756195 0.000000 18.474390
RightHandThumb1 -24.326973 -0.000000 -32.862282
LeftUpLeg -2.052082 10.663527 4.626636
LeftLeg -4.112337 -0.000000 0.000000
LeftFoot -5.771496 -1.359640 -18.076193
LeftToeBase 8.382140 -0.000000 -0.000000
RightUpLeg -3.259705 -9.970749 -5.014065
RightLeg -1.473394 -0.000000 0.000000
RightFoot -2.929388 0.118710 3.557817
RightToeBase -3.386294 -0.000000 0.000000
1375
root 1.290871 32.934395 1.721501 9.632954 -1.189047 -0.961151
Spine -9.250571 5.521985 -2.771321
Head -7.420126 -8.785785 15.909549
LeftShoulder -16.948451 18.965374 22.920160
LeftArm 16.844752 -13.635009 -33.948994
LeftForeArm 17.981482 -0.000000 14.585211
LeftHand -26.481776 -0.000000 -5.665861
LeftHandThumb1 -26.253704 0.000000 33.147579
RightShoulder -23.360268 11.544427 -36.215935
RightArm -5.911171 -8.841306 33.937618
RightForeArm -35.871633 0.000000 14.381091
RightHand -12.294339 -0.000000 18.650261
RightHandThumb1 -24.326973 -0.000000 -32.862282
LeftUpLeg -2.191897 10.631625 4.598143
LeftLeg -4.102336 -0.000000 0.000000
LeftFoot -5.744179 -1.385726 -18.075602
LeftToeBase 8.382173 -0.000000 -0.000000
RightUpLeg -3.363958 -10.009929 -4.997846
RightLeg -1.464718 -0.000000 0.000000
RightFoot -2.929819 0.052669 3.571723
RightToeBase -3.360685 -0.000000 0.000000
